<svg width="180" height="40" viewBox="0 0 180 40" fill="none" xmlns="http://www.w3.org/2000/svg">
  <path d="M20 0C8.954 0 0 8.954 0 20C0 31.046 8.954 40 20 40C31.046 40 40 31.046 40 20C40 8.954 31.046 0 20 0ZM20 7.5C26.904 7.5 32.5 13.096 32.5 20C32.5 26.904 26.904 32.5 20 32.5C13.096 32.5 7.5 26.904 7.5 20C7.5 13.096 13.096 7.5 20 7.5Z" fill="#2563EB"/>
  <path d="M20 15C17.239 15 15 17.239 15 20C15 22.761 17.239 25 20 25C22.761 25 25 22.761 25 20C25 17.239 22.761 15 20 15Z" fill="#10B981"/>
  <path d="M50 10H55V30H50V10Z" fill="#111827"/>
  <path d="M60 10H65L75 22.5V10H80V30H75L65 17.5V30H60V10Z" fill="#111827"/>
  <path d="M85 10H100V15H90V17.5H98V22.5H90V25H100V30H85V10Z" fill="#111827"/>
  <path d="M105 10H120V15H110V17.5H118V22.5H110V25H120V30H105V10Z" fill="#111827"/>
  <path d="M125 10H135C140 10 143 13 143 17.5C143 22 140 25 135 25H130V30H125V10ZM130 20H133C134.5 20 135.5 19 135.5 17.5C135.5 16 134.5 15 133 15H130V20Z" fill="#111827"/>
  <path d="M145 10H150L155 20L160 10H165L157.5 30H152.5L145 10Z" fill="#111827"/>
</svg>
