<svg width="600" height="400" viewBox="0 0 600 400" fill="none" xmlns="http://www.w3.org/2000/svg">
  <rect width="600" height="400" rx="10" fill="#F59E0B"/>
  <rect x="50" y="50" width="500" height="300" rx="8" fill="white" fill-opacity="0.2"/>
  <rect x="80" y="80" width="200" height="100" rx="5" fill="white" fill-opacity="0.3"/>
  <rect x="80" y="200" width="200" height="100" rx="5" fill="white" fill-opacity="0.3"/>
  <rect x="300" y="80" width="220" height="220" rx="5" fill="white" fill-opacity="0.3"/>
  <circle cx="130" cy="130" r="30" fill="white" fill-opacity="0.2"/>
  <rect x="170" y="110" width="80" height="10" rx="2" fill="white" fill-opacity="0.4"/>
  <rect x="170" y="130" width="60" height="10" rx="2" fill="white" fill-opacity="0.4"/>
  <rect x="170" y="150" width="40" height="10" rx="2" fill="white" fill-opacity="0.4"/>
  <circle cx="130" cy="250" r="30" fill="white" fill-opacity="0.2"/>
  <rect x="170" y="230" width="80" height="10" rx="2" fill="white" fill-opacity="0.4"/>
  <rect x="170" y="250" width="60" height="10" rx="2" fill="white" fill-opacity="0.4"/>
  <rect x="170" y="270" width="40" height="10" rx="2" fill="white" fill-opacity="0.4"/>
  <rect x="320" y="100" width="180" height="10" rx="2" fill="white" fill-opacity="0.4"/>
  <rect x="320" y="120" width="180" height="10" rx="2" fill="white" fill-opacity="0.4"/>
  <rect x="320" y="140" width="180" height="10" rx="2" fill="white" fill-opacity="0.4"/>
  <rect x="320" y="160" width="180" height="10" rx="2" fill="white" fill-opacity="0.4"/>
  <rect x="320" y="180" width="180" height="10" rx="2" fill="white" fill-opacity="0.4"/>
  <rect x="320" y="200" width="180" height="10" rx="2" fill="white" fill-opacity="0.4"/>
  <rect x="320" y="220" width="180" height="10" rx="2" fill="white" fill-opacity="0.4"/>
  <rect x="320" y="240" width="180" height="10" rx="2" fill="white" fill-opacity="0.4"/>
  <rect x="320" y="260" width="180" height="10" rx="2" fill="white" fill-opacity="0.4"/>
  <text x="300" y="350" font-family="Arial" font-size="24" fill="white" text-anchor="middle">Financial Dashboard</text>
</svg>
