<svg width="600" height="400" viewBox="0 0 600 400" fill="none" xmlns="http://www.w3.org/2000/svg">
  <rect width="600" height="400" rx="10" fill="#10B981"/>
  <rect x="100" y="50" width="150" height="300" rx="10" fill="white" fill-opacity="0.2"/>
  <rect x="280" y="50" width="220" height="300" rx="10" fill="white" fill-opacity="0.2"/>
  <circle cx="175" cy="100" r="20" fill="white" fill-opacity="0.3"/>
  <rect x="125" y="140" width="100" height="15" rx="2" fill="white" fill-opacity="0.3"/>
  <rect x="125" y="165" width="100" height="15" rx="2" fill="white" fill-opacity="0.3"/>
  <rect x="125" y="190" width="100" height="15" rx="2" fill="white" fill-opacity="0.3"/>
  <rect x="125" y="215" width="100" height="15" rx="2" fill="white" fill-opacity="0.3"/>
  <rect x="300" y="80" width="180" height="120" rx="5" fill="white" fill-opacity="0.3"/>
  <rect x="300" y="220" width="180" height="15" rx="2" fill="white" fill-opacity="0.3"/>
  <rect x="300" y="245" width="180" height="15" rx="2" fill="white" fill-opacity="0.3"/>
  <rect x="300" y="270" width="180" height="15" rx="2" fill="white" fill-opacity="0.3"/>
  <rect x="300" y="295" width="100" height="30" rx="5" fill="white" fill-opacity="0.4"/>
  <text x="300" y="350" font-family="Arial" font-size="24" fill="white" text-anchor="middle">Real Estate App</text>
</svg>
